<?xml version="1.0" encoding="utf-8"?>
<!-- Generator: Adobe Illustrator 24.2.3, SVG Export Plug-In . SVG Version: 6.00 Build 0)  -->
<svg version="1.1" id="Komponente_2_1" xmlns="http://www.w3.org/2000/svg" xmlns:xlink="http://www.w3.org/1999/xlink" x="0px"
	 y="0px" viewBox="0 0 175.9 100" style="enable-background:new 0 0 175.9 100;" xml:space="preserve">
<style type="text/css">
	.st0{fill:#00BB31;}
	.st1{fill:#00426A;}
	.st2{fill:#9E9E9E;}
</style>
<path id="Pfad_1" class="st0" d="M43.4,18.6l6.2,6.2l0.1,0.1h12.4L37.2,0L0,37.2l37.2,37.2l12.3-12.4l6.2-6.2l-6.2-6.1l-6.2,6.2
	l-6.2,6.2L12.4,37.2l24.8-24.8L43.4,18.6z"/>
<g id="Gruppe_1" transform="translate(18.716 0)">
	<path id="Pfad_2" class="st1" d="M0,37.2l18.7,18.7l6.2-6.2L12.3,37.3l0,0l0,0l12.5-12.5l-6.2-6.2L0,37.2z"/>
	<path id="Pfad_3" class="st1" d="M24.8,74.5h12.4l6.3-6.3L37.3,62L24.8,74.5z"/>
	<path id="Pfad_4" class="st1" d="M67.7,44.4c-1.9-1.8-4.8-3-8.7-3.6l-3.6-0.6c-1.1-0.1-2.2-0.5-3.1-1.1c-0.6-0.6-0.9-1.4-0.8-2.3
		c0-0.9,0.4-1.7,1.1-2.2c1.1-0.6,2.4-0.9,3.7-0.8c1.5-0.1,3.1,0.3,4.5,0.9c1.1,0.6,2.2,1.4,3,2.3l0.4,0.4l6.1-6.2L69.9,31
		c-1.5-1.7-3.5-3.1-5.6-4c-2.4-0.9-4.9-1.4-7.5-1.4c-2,0-4,0.3-6,0.8c-1.6,0.5-3.2,1.3-4.5,2.4c-1.2,1-2.2,2.3-2.9,3.7
		c-0.7,1.5-1,3.1-1,4.8c-0.1,2.9,0.9,5.7,2.9,7.8c1.9,1.9,4.9,3.2,8.9,3.7l3.6,0.5c2,0.3,2.8,0.8,3.1,1.2c0.5,0.6,0.7,1.4,0.7,2.2
		c0,1.1-0.4,2.1-1.2,2.8c-1.2,0.8-2.6,1.2-4,1.1c-3.4,0-6.6-1.4-8.8-4l-0.4-0.4l-6,6.1l0.3,0.4c1.7,1.8,3.7,3.3,5.9,4.4
		c2.6,1.2,5.5,1.8,8.4,1.7c2.1,0,4.2-0.3,6.3-0.9c1.7-0.5,3.3-1.4,4.7-2.6c1.3-1.1,2.2-2.5,2.9-4c0.7-1.6,1-3.3,1-5.1
		C70.6,48.9,69.7,46.3,67.7,44.4z"/>
	<path id="Pfad_5" class="st1" d="M113.4,25.7l-3.6,18.7l-1.5,8.2l-1.8-8.3l-4.2-18.6h-9.6l-4.1,18.6l-1.8,8.3l-1.5-8.3l-3.6-18.7
		h-9l8.6,39.1h10l4.7-21l1.4-6.2l1.3,6.2l4.7,21h10l8.8-39.1L113.4,25.7z"/>
	<path id="Pfad_6" class="st1" d="M149.5,49.6c2-0.8,3.7-2.3,4.7-4.2c1.2-2.1,1.8-4.6,1.7-7c0-1.7-0.3-3.5-0.8-5.1
		c-0.5-1.5-1.3-2.8-2.3-4c-1-1.1-2.3-2-3.7-2.6c-1.5-0.6-3.1-0.9-4.8-0.9h-18v39.1h9.1V50.8h4.8l6.4,13.9h10.1L149.5,49.6z
		 M146.7,39.5c0.1,0.9-0.2,1.7-0.8,2.4c-0.7,0.6-1.6,0.9-2.4,0.8h-7.9V34h7.9c0.9-0.1,1.8,0.2,2.4,0.8c0.6,0.6,0.9,1.5,0.8,2.4V39.5
		z"/>
	<path id="Pfad_7" class="st1" d="M37.2,0H24.8l20.7,20.7H58L37.2,0z"/>
</g>
<g id="Gruppe_2" transform="translate(37.268 74.505)">
	<path id="Pfad_8" class="st2" d="M64.3,10.9V2.5h3.5c0.6,0,1.3,0.2,1.7,0.7c0.8,1.1,0.8,2.6,0,3.8c-0.4,0.5-1,0.7-1.7,0.7h-2v3.3
		L64.3,10.9z M65.9,6.3h1.8c0.2,0,0.4-0.1,0.6-0.2c0.2-0.2,0.2-0.4,0.2-0.7V4.7c0-0.2-0.1-0.5-0.2-0.7c-0.2-0.1-0.4-0.2-0.6-0.2
		h-1.8V6.3z"/>
	<path id="Pfad_9" class="st2" d="M75.7,10.9l-0.6-2.2h-2.7l-0.6,2.2h-1.4l2.5-8.4h1.9l2.5,8.4H75.7z M74.1,5.2l-0.3-1.3h-0.2
		l-0.3,1.3l-0.6,2.3h2L74.1,5.2z"/>
	<path id="Pfad_10" class="st2" d="M80.1,10.9h-1.5V2.5h3.5c0.6,0,1.3,0.2,1.7,0.7c0.4,0.5,0.6,1.2,0.6,1.9c0,0.5-0.1,1.1-0.4,1.6
		c-0.2,0.4-0.6,0.7-1.1,0.8l1.5,3.4h-1.6l-1.4-3.3h-1.3L80.1,10.9z M81.9,6.3c0.2,0,0.4-0.1,0.6-0.2c0.2-0.2,0.2-0.4,0.2-0.7V4.7
		c0-0.2-0.1-0.5-0.2-0.7c-0.2-0.1-0.4-0.2-0.6-0.2h-1.8v2.5L81.9,6.3z"/>
	<path id="Pfad_11" class="st2" d="M89,3.8v7.1h-1.5V3.8h-2.1V2.5h5.7v1.3H89z"/>
	<path id="Pfad_12" class="st2" d="M94.6,6.1l-0.6-1.5h-0.2L94,6.2v4.7h-1.4V2.5h1.7l2.3,4.8l0.6,1.5h0.2l-0.1-1.5V2.5h1.4v8.4H97
		L94.6,6.1z"/>
	<path id="Pfad_13" class="st2" d="M100.7,10.9V2.5h5v1.3h-3.5V6h3.1v1.3h-3.1v2.3h3.5v1.3H100.7z"/>
	<path id="Pfad_14" class="st2" d="M109.1,10.9h-1.5V2.5h3.5c0.6,0,1.3,0.2,1.7,0.7c0.4,0.5,0.6,1.2,0.6,1.9c0,0.5-0.1,1.1-0.4,1.6
		c-0.2,0.4-0.6,0.7-1.1,0.8l1.5,3.4h-1.6l-1.4-3.3h-1.3V10.9z M110.9,6.3c0.2,0,0.4-0.1,0.6-0.2c0.2-0.2,0.2-0.4,0.2-0.7V4.7
		c0-0.2-0.1-0.5-0.2-0.7c-0.2-0.1-0.4-0.2-0.6-0.2h-1.8v2.5L110.9,6.3z"/>
	<path id="Pfad_15" class="st2" d="M118,10.9V2.5h4.9v1.3h-3.4V6h3v1.3h-3v3.6L118,10.9z"/>
	<path id="Pfad_16" class="st2" d="M126,2.5v5.5c0,0.5,0.1,0.9,0.3,1.4c0.6,0.6,1.6,0.6,2.3,0c0.2-0.4,0.3-0.9,0.3-1.4V2.5h1.5v5.2
		c0,0.5,0,1-0.2,1.5c-0.1,0.4-0.3,0.7-0.5,1c-0.2,0.3-0.6,0.5-0.9,0.6c-0.9,0.3-1.9,0.3-2.8,0c-0.4-0.1-0.7-0.3-0.9-0.6
		c-0.2-0.3-0.4-0.7-0.5-1c-0.1-0.5-0.2-1-0.1-1.5V2.5H126z M126.3,1.6c-0.2,0-0.4,0-0.6-0.2c-0.1-0.1-0.2-0.3-0.2-0.5V0.6
		c0-0.2,0.1-0.3,0.2-0.5c0.4-0.2,0.9-0.2,1.2,0c0.1,0.1,0.2,0.3,0.2,0.5v0.3c0,0.2-0.1,0.3-0.2,0.5C126.8,1.5,126.5,1.6,126.3,1.6
		L126.3,1.6z M128.6,1.6c-0.2,0-0.4,0-0.6-0.2c-0.1-0.1-0.2-0.3-0.2-0.5V0.6c0-0.2,0.1-0.4,0.2-0.5c0.4-0.2,0.9-0.2,1.2,0
		c0.1,0.1,0.2,0.3,0.2,0.5v0.3c0,0.2-0.1,0.3-0.2,0.5C129,1.5,128.8,1.6,128.6,1.6L128.6,1.6z"/>
	<path id="Pfad_17" class="st2" d="M133.9,10.9h-1.5V2.5h3.5c0.6,0,1.3,0.2,1.7,0.7c0.4,0.5,0.6,1.2,0.6,1.9c0,0.5-0.1,1.1-0.4,1.6
		c-0.2,0.4-0.6,0.7-1.1,0.8l1.5,3.4h-1.6l-1.4-3.3h-1.3V10.9z M135.7,6.3c0.2,0,0.4-0.1,0.6-0.2c0.2-0.2,0.2-0.4,0.2-0.7V4.7
		c0-0.2-0.1-0.5-0.2-0.7c-0.2-0.1-0.4-0.2-0.6-0.2h-1.8v2.5L135.7,6.3z"/>
	<path id="Pfad_18" class="st2" d="M0,25.3v-1.2h1v-6H0v-1.2h3.5v1.2h-1v6h1v1.2H0z"/>
	<path id="Pfad_19" class="st2" d="M7.3,20.6l-0.6-1.5H6.6l0.1,1.5v4.7H5.3v-8.4h1.7l2.3,4.8l0.6,1.5H10l-0.1-1.5v-4.7h1.4v8.4H9.7
		L7.3,20.6z"/>
	<path id="Pfad_20" class="st2" d="M13.4,16.9h2.9c0.5,0,0.9,0.1,1.4,0.2c0.4,0.2,0.7,0.4,1,0.7c0.3,0.4,0.5,0.8,0.6,1.3
		c0.3,1.3,0.3,2.6,0,3.8c-0.1,0.5-0.3,0.9-0.6,1.3c-0.3,0.3-0.6,0.6-1,0.7c-0.4,0.2-0.9,0.2-1.4,0.2h-2.9V16.9z M16.3,24
		c0.4,0,0.9-0.1,1.2-0.5c0.3-0.4,0.5-0.9,0.4-1.4v-2c0-0.5-0.1-1-0.4-1.4c-0.3-0.3-0.7-0.5-1.2-0.5h-1.4V24L16.3,24z"/>
	<path id="Pfad_21" class="st2" d="M22.7,16.9v5.5c0,0.5,0.1,0.9,0.3,1.4c0.6,0.6,1.6,0.6,2.3,0c0.2-0.4,0.3-0.9,0.3-1.4v-5.5h1.5
		v5.2c0,0.5,0,1-0.2,1.5c-0.1,0.4-0.3,0.7-0.5,1c-0.2,0.3-0.6,0.5-0.9,0.6c-0.9,0.3-1.9,0.3-2.8,0c-0.4-0.1-0.7-0.3-0.9-0.6
		c-0.2-0.3-0.4-0.7-0.5-1c-0.1-0.5-0.2-1-0.2-1.5v-5.2H22.7z"/>
	<path id="Pfad_22" class="st2" d="M31.4,25.5c-0.6,0-1.1-0.1-1.7-0.3c-0.5-0.2-0.9-0.6-1.2-1l1-1c0.2,0.3,0.5,0.6,0.8,0.8
		c0.3,0.2,0.7,0.3,1.1,0.3c0.9,0,1.3-0.4,1.3-1.2c0-0.3-0.1-0.6-0.2-0.8c-0.2-0.2-0.5-0.3-0.8-0.4L31,21.7c-0.6-0.1-1.2-0.4-1.7-0.8
		c-0.8-1-0.7-2.5,0.2-3.4c0.6-0.4,1.3-0.7,2-0.6c0.5,0,1.1,0.1,1.5,0.3c0.4,0.2,0.8,0.5,1.1,0.9l-1,0.9c-0.2-0.3-0.4-0.5-0.7-0.6
		c-0.3-0.1-0.6-0.2-1-0.2c-0.3,0-0.7,0.1-0.9,0.3c-0.4,0.4-0.4,1.1-0.1,1.5c0.2,0.2,0.5,0.3,0.8,0.4l0.7,0.2c0.4,0.1,0.7,0.2,1,0.3
		c0.3,0.1,0.5,0.3,0.7,0.5c0.2,0.2,0.3,0.4,0.4,0.7c0.1,0.3,0.1,0.6,0.1,0.9c0.1,0.7-0.2,1.5-0.7,2C32.9,25.3,32.2,25.5,31.4,25.5z"
		/>
	<path id="Pfad_23" class="st2" d="M38.8,18.3v7.1h-1.5v-7.1h-2.1v-1.3h5.7v1.3L38.8,18.3z"/>
	<path id="Pfad_24" class="st2" d="M43.9,25.3h-1.5v-8.4h3.5c0.6,0,1.3,0.2,1.7,0.7c0.4,0.5,0.6,1.2,0.6,1.9c0,0.5-0.1,1.1-0.4,1.6
		c-0.2,0.4-0.6,0.7-1.1,0.9l1.5,3.4h-1.6L45.2,22h-1.3L43.9,25.3z M45.7,20.8c0.2,0,0.4-0.1,0.6-0.2c0.2-0.2,0.2-0.4,0.2-0.7v-0.7
		c0-0.2-0.1-0.5-0.2-0.7c-0.2-0.1-0.4-0.2-0.6-0.2h-1.8v2.5L45.7,20.8z"/>
	<path id="Pfad_25" class="st2" d="M49.6,25.3v-1.2h1v-6h-1v-1.2h3.5v1.2h-1v6h1v1.2H49.6z"/>
	<path id="Pfad_26" class="st2" d="M54.9,25.3v-8.4h5v1.3h-3.5v2.2h3.1v1.3h-3.1V24h3.5v1.3H54.9z"/>
	<path id="Pfad_27" class="st2" d="M68.7,24.1h-0.2c-0.1,0.4-0.3,0.8-0.6,1c-0.4,0.3-0.8,0.4-1.3,0.4c-0.6,0-1.2-0.2-1.7-0.6
		c-0.4-0.5-0.6-1.1-0.6-1.7c0-0.5,0.1-1,0.4-1.4c0.3-0.4,0.7-0.7,1.2-1c-0.5-0.6-0.9-1.3-0.9-2.1c0-0.5,0.2-1,0.6-1.4
		c1-0.7,2.2-0.7,3.2,0c0.4,0.4,0.6,0.9,0.6,1.4c0,1-0.6,1.9-1.5,2.3l1.3,1.7c0.1-0.3,0.2-0.6,0.2-0.9c0.1-0.3,0.1-0.6,0.1-0.9h1.7
		V22h-0.7c-0.1,0.3-0.1,0.5-0.2,0.8c-0.1,0.3-0.2,0.5-0.3,0.7l1.5,1.8h-1.8L68.7,24.1z M67,24.3c0.2,0,0.5,0,0.7-0.1
		c0.2-0.1,0.4-0.2,0.5-0.4l-1.7-2.1c-0.5,0.2-0.8,0.8-0.8,1.3v0.2c0,0.3,0.1,0.6,0.3,0.8C66.4,24.2,66.7,24.3,67,24.3L67,24.3z
		 M67.1,17.9c-0.2,0-0.4,0.1-0.6,0.2c-0.2,0.1-0.2,0.4-0.2,0.6v0.2c0,0.2,0.1,0.4,0.2,0.6c0.1,0.3,0.3,0.5,0.5,0.7
		c0.3-0.1,0.5-0.3,0.6-0.6c0.2-0.2,0.2-0.5,0.2-0.8v-0.2c0-0.2-0.1-0.4-0.2-0.6C67.5,18,67.3,17.9,67.1,17.9L67.1,17.9z"/>
	<path id="Pfad_28" class="st2" d="M80.1,21.7H77v3.6h-1.5v-8.4H77v3.5h3.1v-3.5h1.5v8.4h-1.5V21.7z"/>
	<path id="Pfad_29" class="st2" d="M88.4,25.3l-0.6-2.2h-2.7l-0.6,2.2H83l2.5-8.4h1.9l2.5,8.4H88.4z M86.8,19.6l-0.3-1.3h-0.2
		l-0.3,1.3l-0.6,2.3h2L86.8,19.6z"/>
	<path id="Pfad_30" class="st2" d="M93.3,20.6l-0.6-1.5h-0.2l0.1,1.5v4.7h-1.4v-8.4h1.7l2.3,4.8l0.6,1.5H96l-0.1-1.5v-4.7h1.4v8.4
		h-1.7L93.3,20.6z"/>
	<path id="Pfad_31" class="st2" d="M99.4,16.9h2.9c0.5,0,0.9,0.1,1.4,0.2c0.4,0.2,0.7,0.4,1,0.7c0.3,0.4,0.5,0.8,0.6,1.3
		c0.3,1.3,0.3,2.6,0,3.8c-0.1,0.5-0.3,0.9-0.6,1.3c-0.3,0.3-0.6,0.6-1,0.7c-0.4,0.2-0.9,0.2-1.4,0.2h-2.9V16.9z M102.3,24
		c0.4,0,0.9-0.1,1.2-0.5c0.3-0.4,0.5-0.9,0.4-1.4v-2c0-0.5-0.1-1-0.4-1.4c-0.3-0.3-0.7-0.5-1.2-0.5h-1.4V24L102.3,24z"/>
	<path id="Pfad_32" class="st2" d="M108.3,25.3l-1.7-8.4h1.5l0.9,4.9l0.2,1.9h0.2l0.2-1.9l1-4.9h1.7l1,4.9l0.2,1.9h0.2l0.2-1.9
		l0.9-4.9h1.4l-1.8,8.4h-1.7l-1-5l-0.2-1.8h-0.2l-0.2,1.8l-1.1,5H108.3z"/>
	<path id="Pfad_33" class="st2" d="M117.8,25.3v-8.4h5v1.3h-3.5v2.2h3.1v1.3h-3.1V24h3.5v1.3H117.8z"/>
	<path id="Pfad_34" class="st2" d="M126.2,25.3h-1.5v-8.4h3.5c0.6,0,1.3,0.2,1.7,0.7c0.4,0.5,0.6,1.2,0.6,1.9c0,0.5-0.1,1.1-0.4,1.6
		c-0.2,0.4-0.6,0.7-1.1,0.9l1.5,3.4h-1.6l-1.4-3.3h-1.3V25.3z M128,20.8c0.2,0,0.4-0.1,0.6-0.2c0.2-0.2,0.2-0.4,0.2-0.7v-0.7
		c0-0.2-0.1-0.5-0.2-0.7c-0.2-0.1-0.4-0.2-0.6-0.2h-1.8v2.5L128,20.8z"/>
	<path id="Pfad_35" class="st2" d="M134.7,21.5l-1,1.3v2.5h-1.5v-8.4h1.5v2.7l-0.1,1.5h0.2l1-1.5l1.9-2.7h1.7l-2.6,3.5l2.8,4.9h-1.8
		L134.7,21.5z"/>
</g>
</svg>
